<svg width="32" height="29" viewBox="0 0 32 29" fill="none" xmlns="http://www.w3.org/2000/svg">
<path d="M1.74411 16.142H12.2088C13.168 16.142 13.9529 15.442 13.9529 14.5864V2.14198C13.9529 1.28643 13.168 0.586426 12.2088 0.586426H1.74411C0.784848 0.586426 0 1.28643 0 2.14198V14.5864C0 15.442 0.784848 16.142 1.74411 16.142ZM1.74411 28.5864H12.2088C13.168 28.5864 13.9529 27.8864 13.9529 27.0309V20.8086C13.9529 19.9531 13.168 19.2531 12.2088 19.2531H1.74411C0.784848 19.2531 0 19.9531 0 20.8086V27.0309C0 27.8864 0.784848 28.5864 1.74411 28.5864ZM19.1852 28.5864H29.6498C30.6091 28.5864 31.3939 27.8864 31.3939 27.0309V14.5864C31.3939 13.7309 30.6091 13.0309 29.6498 13.0309H19.1852C18.2259 13.0309 17.4411 13.7309 17.4411 14.5864V27.0309C17.4411 27.8864 18.2259 28.5864 19.1852 28.5864ZM17.4411 2.14198V8.3642C17.4411 9.21976 18.2259 9.91976 19.1852 9.91976H29.6498C30.6091 9.91976 31.3939 9.21976 31.3939 8.3642V2.14198C31.3939 1.28643 30.6091 0.586426 29.6498 0.586426H19.1852C18.2259 0.586426 17.4411 1.28643 17.4411 2.14198Z" fill="white"/>
</svg>
