<svg width="20" height="21" viewBox="0 0 20 21" fill="none" xmlns="http://www.w3.org/2000/svg">
<path fill-rule="evenodd" clip-rule="evenodd" d="M5.83341 3.83317C4.4527 3.83317 3.33341 4.95246 3.33341 6.33317V14.6665C3.33341 16.0472 4.4527 17.1665 5.83341 17.1665H14.1667C15.5475 17.1665 16.6667 16.0472 16.6667 14.6665V11.3332C16.6667 10.8729 17.0398 10.4998 17.5001 10.4998C17.9603 10.4998 18.3334 10.8729 18.3334 11.3332V14.6665C18.3334 16.9677 16.4679 18.8332 14.1667 18.8332H5.83341C3.53223 18.8332 1.66675 16.9677 1.66675 14.6665V6.33317C1.66675 4.03198 3.53223 2.1665 5.83341 2.1665H9.16675C9.62699 2.1665 10.0001 2.5396 10.0001 2.99984C10.0001 3.46007 9.62699 3.83317 9.16675 3.83317H5.83341Z" fill="white"/>
<path fill-rule="evenodd" clip-rule="evenodd" d="M18.0893 2.41058C18.4148 2.73602 18.4148 3.26366 18.0893 3.58909L10.5893 11.0891C10.2639 11.4145 9.73626 11.4145 9.41083 11.0891C9.08539 10.7637 9.08539 10.236 9.41083 9.91058L16.9108 2.41058C17.2363 2.08514 17.7639 2.08514 18.0893 2.41058Z" fill="white"/>
<path fill-rule="evenodd" clip-rule="evenodd" d="M11.6667 2.99984C11.6667 2.5396 12.0398 2.1665 12.5001 2.1665H17.5001C17.9603 2.1665 18.3334 2.5396 18.3334 2.99984V7.99984C18.3334 8.46007 17.9603 8.83317 17.5001 8.83317C17.0398 8.83317 16.6667 8.46007 16.6667 7.99984V3.83317H12.5001C12.0398 3.83317 11.6667 3.46007 11.6667 2.99984Z" fill="white"/>
</svg>
