<svg width="32" height="29" viewBox="0 0 32 29" fill="none" xmlns="http://www.w3.org/2000/svg">
<path d="M1.74411 16.1415H12.2088C13.168 16.1415 13.9529 15.4415 13.9529 14.5859V2.14149C13.9529 1.28594 13.168 0.585938 12.2088 0.585938H1.74411C0.784848 0.585938 0 1.28594 0 2.14149V14.5859C0 15.4415 0.784848 16.1415 1.74411 16.1415ZM1.74411 28.5859H12.2088C13.168 28.5859 13.9529 27.8859 13.9529 27.0304V20.8082C13.9529 19.9526 13.168 19.2526 12.2088 19.2526H1.74411C0.784848 19.2526 0 19.9526 0 20.8082V27.0304C0 27.8859 0.784848 28.5859 1.74411 28.5859ZM19.1852 28.5859H29.6498C30.6091 28.5859 31.3939 27.8859 31.3939 27.0304V14.5859C31.3939 13.7304 30.6091 13.0304 29.6498 13.0304H19.1852C18.2259 13.0304 17.4411 13.7304 17.4411 14.5859V27.0304C17.4411 27.8859 18.2259 28.5859 19.1852 28.5859ZM17.4411 2.14149V8.36372C17.4411 9.21927 18.2259 9.91927 19.1852 9.91927H29.6498C30.6091 9.91927 31.3939 9.21927 31.3939 8.36372V2.14149C31.3939 1.28594 30.6091 0.585938 29.6498 0.585938H19.1852C18.2259 0.585938 17.4411 1.28594 17.4411 2.14149Z" fill="white"/>
</svg>
